HIERARCHY
ROOT Hips
{
  OFFSET 90.7885 88.945 -76.2838
  CHANNELS 6 Xposition Yposition Zposition Zrotation Xrotation Yrotation
  JOINT LeftUpLeg
  {
    OFFSET 8.64259 1.95398 -2.38835
    CHANNELS 3 Zrotation Xrotation Yrotation
    JOINT LeftLeg
    {
      OFFSET 43.7702 0 0
      CHANNELS 3 Zrotation Xrotation Yrotation
      JOINT LeftFoot
      {
        OFFSET 40.6238 0 0
        CHANNELS 3 Zrotation Xrotation Yrotation
        JOINT LeftToeBase
        {
          OFFSET 12.7242 0 0
          CHANNELS 3 Zrotation Xrotation Yrotation
          End Site
          {
            OFFSET 0 0 0
          }
        }
      }
    }
  }
  JOINT RightUpLeg
  {
    OFFSET -8.2249 1.95398 -2.59336
    CHANNELS 3 Zrotation Xrotation Yrotation
    JOINT RightLeg
    {
      OFFSET 43.5653 0 0
      CHANNELS 3 Zrotation Xrotation Yrotation
      JOINT RightFoot
      {
        OFFSET 40.6238 0 0
        CHANNELS 3 Zrotation Xrotation Yrotation
        JOINT RightToeBase
        {
          OFFSET 12.7242 0 0
          CHANNELS 3 Zrotation Xrotation Yrotation
          End Site
          {
            OFFSET 0 0 0
          }
        }
      }
    }
  }
  JOINT Spine
  {
    OFFSET 0.165834 0.87714 6.61349
    CHANNELS 3 Zrotation Xrotation Yrotation
    JOINT Spine1
    {
      OFFSET 7.38963 1.71661e-005 0
      CHANNELS 3 Zrotation Xrotation Yrotation
      JOINT Spine2
      {
        OFFSET 11.9445 1.14441e-005 0
        CHANNELS 3 Zrotation Xrotation Yrotation
        JOINT Spine3
        {
          OFFSET 14.7254 4.19617e-005 0
          CHANNELS 3 Zrotation Xrotation Yrotation
          JOINT Spine4
          {
            OFFSET 10.9679 0 0
            CHANNELS 3 Zrotation Xrotation Yrotation
            JOINT RightShoulder
            {
              OFFSET 2.46616 -1.6653 3.69651
              CHANNELS 3 Zrotation Xrotation Yrotation
              JOINT RightArm
              {
                OFFSET 13.0012 0 0
                CHANNELS 3 Zrotation Xrotation Yrotation
                JOINT RightForeArm
                {
                  OFFSET 28.7848 1.52588e-005 0
                  CHANNELS 3 Zrotation Xrotation Yrotation
                  JOINT RightHand
                  {
                    OFFSET 26.5688 1.52588e-005 0
                    CHANNELS 3 Zrotation Xrotation Yrotation
                    End Site
                    {
                      OFFSET 0 0 0
                    }
                  }
                }
              }
            }
            JOINT LeftShoulder
            {
              OFFSET 2.38034 -1.29275 -3.7523
              CHANNELS 3 Zrotation Xrotation Yrotation
              JOINT LeftArm
              {
                OFFSET 16.3182 6.10352e-005 0
                CHANNELS 3 Zrotation Xrotation Yrotation
                JOINT LeftForeArm
                {
                  OFFSET 27.0901 0 0
                  CHANNELS 3 Zrotation Xrotation Yrotation
                  JOINT LeftHand
                  {
                    OFFSET 24.5451 1.52588e-005 0
                    CHANNELS 3 Zrotation Xrotation Yrotation
                    End Site
                    {
                      OFFSET 0 0 0
                    }
                  }
                }
              }
            }
            JOINT Neck
            {
              OFFSET 5.0226 -0.0266342 0
              CHANNELS 3 Zrotation Xrotation Yrotation
              JOINT Head
              {
                OFFSET 6.69363 2.86102e-005 0
                CHANNELS 3 Zrotation Xrotation Yrotation
                End Site
                {
                  OFFSET 0 0 0
                }
              }
            }
          }
        }
      }
    }
  }
}
MOTION
Frames:	13
Frame Time:	0.0416667
15.2268 99.6977 17.3351 172.918 -81.0931 171.661 -176.573 -4.9439 91.0313 -12.7864 9.41287 0.185913 71.5096 5.22964 -3.27745 16.0115 -2.80438 5.27607 169.109 -6.8415 85.5113 -11.8764 -11.2376 -1.45289 69.5452 -4.88108 2.55038 24.8073 -0.956459 2.92938 0.143155 7.90799 -90.0851 11.0581 0.245563 -0.192911 -0.612854 0.23683 -0.203535 -23.1481 0.292181 -0.11019 -3.13546 0.292179 -0.110189 89.1634 -30.6806 -108.139 39.7789 -14.9473 -4.22248 3.55896 -23.1699 -16.1249 -23.2351 -0.846308 -6.48839 -88.8735 -54.55 81.2674 -15.8542 25.6402 -15.0303 1.39599 7.92483 -10.3719 0.852582 -0.110568 -4.99865 0.594735 -2.74156 -2.08377 -4.23171 -2.43315 1.18696 
15.2863 99.7118 17.4104 173.433 -81.0419 172.155 -176.632 -5.19547 90.9343 -12.5721 9.1242 0.212575 71.6663 5.30424 -3.3704 15.4448 -2.64962 5.13867 169.217 -6.71537 85.4833 -12.4028 -13.8144 -1.65747 68.2836 -4.33679 1.63432 27.0503 0.0827435 0.221222 0.159992 7.90734 -90.0913 11.0594 0.276166 -0.208356 -0.611528 0.266719 -0.220312 -23.1469 0.326014 -0.115728 -3.13422 0.32601 -0.115732 89.1423 -30.6525 -108.192 39.7946 -14.7023 -4.06559 3.3183 -23.6783 -15.8142 -24.4207 -0.656042 -7.71433 -89.0345 -54.7989 81.0831 -15.8223 25.1015 -15.3826 1.37764 8.23775 -9.55402 1.20284 -0.110544 -5.13927 0.872229 -2.58267 -1.22542 -4.8615 -2.36688 -0.291253 
15.2709 99.7071 17.4757 173.231 -81.1501 171.836 -176.713 -5.26036 90.7918 -12.3583 9.2408 0.227002 71.6472 5.31968 -3.12674 15.5896 -2.8677 5.38379 169.179 -6.52372 85.3692 -12.627 -13.3832 -1.67467 68.662 -4.47252 1.98841 26.7499 0.0152359 0.430587 0.145254 7.8971 -90.0983 11.0798 0.243569 -0.219222 -0.5911 0.233683 -0.229736 -23.1264 0.298192 -0.135882 -3.11372 0.298194 -0.135886 89.1294 -30.3252 -108.348 40.0872 -14.7968 -3.95349 3.67995 -23.6259 -15.6224 -25.8669 -0.804725 -6.79197 -89.0234 -55.1258 81.158 -15.5539 25.2144 -15.3781 1.38699 8.01888 -9.81895 0.946196 -0.115316 -5.20232 1.05689 -2.49182 -0.975707 -5.08249 -2.31183 -0.256876 
15.2739 99.7116 17.5485 172.272 -81.1959 170.81 -176.781 -5.27486 90.7125 -12.2784 9.23069 0.270126 71.6612 5.31019 -3.23563 15.5218 -2.9225 5.4515 169.116 -6.62205 85.324 -12.3949 -13.4909 -1.65306 68.5987 -4.49578 1.45898 26.9519 -0.201781 0.874455 0.124589 7.90352 -90.1116 11.067 0.196314 -0.24094 -0.603995 0.185518 -0.249355 -23.1392 0.259649 -0.170807 -3.12652 0.25965 -0.170807 89.1902 -30.0025 -108.359 40.1233 -14.5881 -4.0247 3.68914 -23.9083 -15.6713 -24.9391 -0.693 -7.52879 -88.9728 -55.5625 81.3075 -15.0578 25.3766 -15.5773 1.36804 8.02074 -10.0941 0.960593 -0.100868 -4.72591 1.21271 -2.43098 -0.626525 -4.85318 -2.29838 -0.428993 
15.2831 99.7082 17.5774 173.357 -81.3952 171.855 -176.992 -5.23497 90.5177 -12.1192 8.70405 0.421346 71.6712 5.29061 -3.40673 15.348 -2.94131 5.48596 169.08 -6.37336 85.2508 -12.5038 -13.6797 -1.63215 68.5758 -4.46495 1.82617 26.9154 0.0368204 0.345155 0.138479 7.89244 -90.0993 11.0892 0.229615 -0.219784 -0.581784 0.219727 -0.229687 -23.117 0.285055 -0.14062 -3.10439 0.285061 -0.140617 89.1434 -30.2339 -108.357 39.9841 -14.8182 -4.01291 3.72287 -24.4048 -15.8202 -25.4104 -0.888409 -6.58972 -88.8477 -55.285 81.435 -15.6256 24.896 -15.5421 1.58279 8.18079 -9.96653 0.931202 -0.1095 -5.02784 1.57728 -2.51478 -0.776726 -5.45072 -2.34873 -0.587206 
15.2231 99.6859 17.631 175.153 -81.4762 173.568 -176.943 -5.28986 90.4938 -12.0383 8.72499 0.308356 71.6589 5.29485 -3.34982 15.4632 -3.24559 5.83234 169.18 -6.32483 85.2556 -12.4595 -13.8764 -1.76943 68.6088 -4.48853 1.78241 27.1301 -0.0687137 0.53649 0.165065 7.90095 -90.0832 11.0722 0.290016 -0.193623 -0.598748 0.281213 -0.206208 -23.1341 0.334796 -0.0975104 -3.12148 0.334798 -0.0975147 89.0713 -30.4396 -108.416 40.0134 -14.3143 -4.15763 3.72543 -25.8964 -15.5538 -25.3729 -0.884838 -7.0546 -88.8617 -55.2511 81.4091 -15.4523 25.1829 -15.6283 1.4877 8.30867 -9.96264 1.15948 -0.0954457 -4.52692 1.47172 -2.55056 -1.17962 -4.91168 -2.34159 0.0202192 
15.0744 99.6978 17.7208 174.995 -81.5099 173.53 -176.733 -5.27225 90.8149 -12.0489 8.91268 0.222722 71.6146 5.29172 -3.38136 15.7402 -3.32582 5.90892 169.261 -6.43841 85.4804 -12.4092 -13.8208 -1.70671 68.6702 -4.54239 1.24601 26.8078 -0.405385 1.36071 0.161284 7.89207 -90.0911 11.09 0.27881 -0.208275 -0.580924 0.269374 -0.220348 -23.1163 0.328511 -0.114854 -3.10363 0.328514 -0.114854 89.1135 -30.6341 -108.255 39.8905 -14.5507 -4.05237 3.5397 -25.9251 -16.1277 -24.9426 -0.970709 -6.60463 -88.9117 -55.1196 81.315 -15.7636 24.98 -15.345 1.5428 8.17923 -9.86157 1.19383 -0.100078 -4.6773 1.16972 -2.58465 -1.84171 -4.73872 -2.29868 0.807475 
14.8879 99.7044 17.7659 174.276 -81.6806 172.86 -176.449 -5.05982 91.1518 -12.0614 9.27415 -0.00698614 71.5432 5.26318 -3.43726 15.9664 -3.34615 5.91724 169.556 -6.35722 85.8087 -12.4356 -13.4856 -1.8259 68.7166 -4.54741 1.14466 26.8541 -0.297414 1.11052 0.156042 7.88574 -90.0966 11.1026 0.265806 -0.218022 -0.568323 0.255948 -0.229511 -23.1036 0.319037 -0.128058 -3.091 0.31904 -0.128055 89.0622 -30.8228 -108.28 39.7247 -14.7573 -3.96211 3.37005 -25.3691 -16.341 -25.3255 -0.963803 -6.47506 -88.8635 -54.8263 81.3311 -16.1911 24.9069 -15.3545 1.53265 8.10237 -9.67241 1.1668 -0.108601 -4.95501 1.18425 -2.61422 -1.69873 -4.98422 -2.33785 0.301945 
14.6544 99.6851 17.9865 172.414 -81.5846 171.159 -176.073 -5.09726 91.6502 -12.2302 10.1781 -0.163129 71.6622 5.34908 -2.89018 16.3009 -2.90389 5.37152 169.617 -6.7469 86.0611 -12.2295 -12.8501 -1.69215 68.5877 -4.43063 1.92245 27.8529 0.127713 -0.0768099 0.129977 7.89426 -90.135 11.0856 0.196121 -0.287709 -0.585388 0.183269 -0.296058 -23.1205 0.273513 -0.215465 -3.10787 0.273521 -0.215459 89.0729 -30.5523 -108.367 40.075 -14.5267 -3.88007 3.46289 -25.3569 -15.9418 -25.6304 -0.950754 -6.54102 -88.8684 -55.3424 81.416 -15.3092 25.5361 -15.2732 1.40087 8.15376 -10.2366 1.26626 -0.09479 -4.50384 1.10228 -2.58821 -1.57154 -4.94553 -2.33899 0.551171 
14.487 99.6787 18.0781 172.445 -81.7736 171.026 -176.131 -5.09278 91.5834 -12 9.96894 -0.153241 71.6807 5.33735 -3.33609 16.1097 -3.26849 5.81636 169.722 -6.57938 86.1267 -12.3496 -13.2445 -1.807 68.8389 -4.60898 1.01266 26.6323 -0.173484 0.879966 0.132352 7.86738 -90.1015 11.1393 0.216361 -0.223006 -0.531622 0.206338 -0.232322 -23.0668 0.273379 -0.147673 -3.0542 0.273377 -0.14768 88.8897 -30.9042 -108.583 39.8366 -14.6488 -3.70854 3.47822 -24.2778 -15.8672 -25.8376 -0.861107 -6.70389 -88.7618 -54.7739 81.4664 -16.1626 25.1397 -15.0908 1.55933 8.51097 -10.0017 1.36084 -0.103647 -4.76573 0.815499 -2.62162 -1.96719 -4.90912 -2.32776 0.919924 
14.214 99.6483 18.2547 171.845 -81.9315 170.466 -175.958 -5.12014 91.8762 -11.8088 10.1857 -0.210753 71.9512 5.43816 -3.36242 15.6297 -3.27754 5.85887 169.96 -6.59252 86.4299 -12.3211 -12.5151 -1.85131 68.8909 -4.57624 1.70389 26.9391 -0.114025 0.680537 0.139113 7.86028 -90.1107 11.1535 0.225505 -0.242358 -0.517452 0.214623 -0.252057 -23.0527 0.287915 -0.163382 -3.04003 0.287915 -0.163384 89.0971 -30.9205 -108.173 39.9088 -14.3191 -4.00713 3.93714 -26.1586 -15.5071 -25.3722 -0.943137 -6.81251 -88.6492 -54.5946 81.595 -16.3387 25.0407 -15.2237 1.70744 9.18042 -10.0441 1.351 -0.089142 -4.33821 0.890483 -2.5903 -2.12371 -4.65802 -2.27583 1.1709 
13.8913 99.6159 18.4793 172.033 -81.9202 170.618 -175.669 -5.52173 92.2623 -11.2329 10.0744 -0.398294 71.9311 5.39941 -3.82371 16.1532 -2.98471 5.4766 170.04 -6.74753 86.621 -12.4381 -12.6815 -1.83564 69.4782 -4.90564 0.745939 26.1114 -0.406039 1.49464 0.162059 7.86419 -90.131 11.1457 0.261738 -0.286304 -0.525207 0.248884 -0.297552 -23.0604 0.335688 -0.194404 -3.04779 0.335687 -0.194403 89.1124 -30.8057 -108.189 39.8954 -14.2647 -3.88975 4.03807 -26.0566 -15.7072 -25.99 -0.98934 -6.52523 -88.7247 -54.788 81.5216 -16.2227 24.9636 -15.299 1.66967 8.88241 -9.99864 2.08166 -0.0802633 -4.08961 0.932643 -2.55167 -1.71345 -4.84248 -2.28192 0.466226 
13.3494 99.5886 18.8029 170.734 -81.9881 169.553 -175.267 -5.90565 92.9928 -10.525 10.6087 -0.422643 72.0596 5.44467 -4.1382 16.4539 -3.45423 6.0133 170.385 -7.05012 87.2438 -12.3773 -11.9147 -1.78693 69.911 -5.01523 1.62278 25.5438 0.098989 0.507372 0.15497 7.8421 -90.1446 11.1899 0.241259 -0.311518 -0.481021 0.227313 -0.321844 -23.0162 0.32372 -0.224609 -3.00354 0.323728 -0.224609 88.8687 -30.9581 -108.602 40.002 -14.2004 -3.84369 4.14576 -24.0751 -15.4755 -25.5001 -0.86018 -6.63915 -88.8147 -54.7018 81.3782 -16.1752 24.6506 -14.9962 1.91678 9.26876 -10.0907 0.615891 -0.102513 -4.82907 0.680044 -2.62591 -1.64881 -4.76413 -2.35938 0.0750973 
